# AST/ASF file generated using VICON BodyLanguage
# -----------------------------------------------
:version 1.10
:name VICON
:units
  mass 1.0
  length 0.45
  angle deg
:documentation
   .ast/.asf automatically generated from VICON data using
   VICON BodyBuilder and BodyLanguage model FoxedUp or BRILLIANT.MOD
:root
   order TX TY TZ RX RY RZ
   axis XYZ
   position 0 0 0  
   orientation 0 0 0 
:bonedata
  begin
     id 1 
     name lhipjoint
     direction 0.662698 -0.695252 0.27831 
     length 2.53073 
     axis 0 0 0  XYZ
  end
  begin
     id 2 
     name lfemur
     direction 0.34202 -0.939693 0  
     length 7.16147  
     axis 0 0 20  XYZ
    dof rx ry rz
    limits (-160.0 20.0)
           (-70.0 70.0)
           (-60.0 70.0)
  end
  begin
     id 3 
     name ltibia
     direction 0.34202 -0.939693 0   
     length 7.63967   
     axis 0 0 20   XYZ
    dof rx
    limits (-10.0 170.0)
  end
  begin
     id 4 
     name lfoot
     direction 0.0938457 -0.257721 0.961651   
     length 1.89793   
     axis -90 7.62852e-016 20   XYZ
    dof rx rz
    limits (-45.0 90.0)
           (-70.0 20.0)
  end
  begin
     id 5 
     name ltoes
     direction -0.00116841 -0.0030592 0.999995   
     length 0.955649   
     axis -90 7.62852e-016 20   XYZ
    dof rx
    limits (-90.0 20.0)
  end
  begin
     id 6 
     name rhipjoint
     direction -0.649445 -0.705948 0.282592   
     length 2.49238  
     axis 0 0 0  XYZ 
  end
  begin
     id 7 
     name rfemur
     direction -0.34202 -0.939693 0   
     length 6.90728   
     axis 0 0 -20   XYZ
    dof rx ry rz
    limits (-160.0 20.0)
           (-70.0 70.0)
           (-70.0 60.0)
  end
  begin
     id 8 
     name rtibia
     direction -0.34202 -0.939693 0   
     length 7.72868   
     axis 0 0 -20   XYZ
    dof rx
    limits (-10.0 170.0)
 end
 begin
     id 9 
     name rfoot
     direction -0.0920068 -0.252865 0.963117   
     length 1.97476  
     axis -90 -7.62852e-016 -20   XYZ
    dof rx rz
    limits (-45.0 90.0)
           (-20.0 70.0)
  end
  begin
     id 10 
     name rtoes
     direction 0.000391322 0.00230649 0.999997   
     length 0.992641   
     axis -90 -7.62852e-016 -20   XYZ
    dof rx
    limits (-90.0 20.0)
  end
  begin
     id 11 
     name lowerback
     direction -0.00875327 0.998321 -0.0572635   
     length 2.20024   
     axis 0 0 0   XYZ
    dof rx ry rz
    limits (-20.0 45.0)
           (-30.0 30.0)
           (-30.0 30.0)
  end
  begin
     id 12 
     name upperback
     direction 0.00753931 0.999972 -0.000360425   
     length 2.20538   
     axis 0 0 0   XYZ
    dof rx ry rz
    limits (-20.0 45.0)
           (-30.0 30.0)
           (-30.0 30.0)
  end
  begin
     id 13 
     name thorax
     direction 0.0117767 0.999601 0.0256663   
     length 2.21508   
     axis 0 0 0   XYZ
    dof rx ry rz
    limits (-20.0 45.0)
           (-30.0 30.0)
           (-30.0 30.0)
  end
  begin
     id 14 
     name lowerneck
     direction 0.060228 0.994909 0.0807986   
     length 1.7607   
     axis 0 0 0   XYZ
    dof rx ry rz
    limits (-20.0 45.0)
           (-30.0 30.0)
           (-30.0 30.0)
  end
  begin
     id 15 
     name upperneck
     direction -0.0563647 0.959594 -0.275685   
     length 1.75612   
     axis 0 0 0   XYZ
    dof rx ry rz
    limits (-20.0 45.0)
           (-30.0 30.0)
           (-30.0 30.0)
  end
  begin
     id 16
     name head
     direction -0.0161544 0.99458 -0.102714  
     length 1.79288  
     axis 0 0 0   XYZ
    dof rx ry rz
    limits (-20.0 45.0)
           (-30.0 30.0)
           (-30.0 30.0)
  end
  begin
     id 17 
     name lclavicle
     direction 0.93913 0.332189 -0.087669  
     length 3.52087  
     axis 0 0 0   XYZ
    dof ry rz
    limits (-20.0 10.0)
           (0.0 20.0)
  end
  begin
     id 18 
     name lhumerus
     direction 1 -4.48974e-011 -2.70836e-027   
     length 5.35289   
     axis -180 -30 -90   XYZ
    dof rx ry rz
    limits (-60.0 90.0)
           (-90.0 90.0)
           (-90.0 90.0)
  end
  begin
     id 19
     name lradius
     direction 1 -4.48961e-011 -9.76021e-027   
     length 3.27727   
     axis -180 -30 -90   XYZ
    dof rx
    limits (-10.0 170.0)
  end
  begin
     id 20
     name lwrist
     direction 1 -4.49103e-011 -2.23668e-026   
     length 1.63864   
     axis 1.44924e-014 90 90   XYZ
    dof ry
    limits (-180.0 0.0)
 end
  begin
     id 21 
     name lhand
     direction 1 3.0697e-005 0.000161777   
     length 0.54443   
     axis 2.85318e-014 90 90   XYZ
    dof rx rz
    limits (-90.0 90.0)
           (-45.0 45.0)
  end
  begin
     id 22 
     name lfingers
     direction 1 -4.49027e-011 -8.9447e-026   
     length 0.438912   
     axis 5.70628e-014 90 90   XYZ
    dof rx
    limits (0.0 90.0)
  end
  begin
     id 23
     name lthumb
     direction 0.707058 2.6516e-005 0.707156   
     length 0.630274   
     axis -90 45 -3.53137e-014   XYZ
    dof rx rz
    limits (-45.0 45.0)
           (-45.0 45.0)
  end
  begin
     id 24 
     name rclavicle
     direction -0.95274 0.284984 -0.105215   
     length 3.43401  
     axis 0 0 0   XYZ 
    dof ry rz
    limits (-10.0 20.0)
           (-20.0 0.0)
  end
  begin
     id 25 
     name rhumerus
     direction -0.999999 -0.000575019 -0.00106829  
     length 5.52077   
     axis -180 30 90   XYZ
    dof rx ry rz
    limits (-90.0 60.0)
           (-90.0 90.0)
           (-90.0 90.0)
  end
  begin
     id 26 
     name rradius
     direction -1 -4.4879e-011 -6.35415e-027   
     length 3.32364   
     axis -180 30 90   XYZ
    dof rx
    limits (-10.0 170.0)
  end
  begin
     id 27 
     name rwrist
     direction -1 -4.49048e-011 -9.98542e-027   
     length 1.66182   
     axis 6.32482e-015 -90 -90   XYZ
    dof ry
    limits (-180.0 0.0)
  end
  begin
     id 28
     name rhand
     direction -1 -4.48978e-011 -1.99771e-026   
     length 0.732235   
     axis 1.27479e-014 -90 -90   XYZ
    dof rx rz
    limits (-90.0 90.0)
           (-45.0 45.0)
  end
  begin
     id 29
     name rfingers
     direction -1 -4.49144e-011 -3.99245e-026   
     length 0.590347   
     axis 2.5496e-014 -90 -90   XYZ
    dof rx
    limits (0.0 90.0)
  end
  begin
     id 30
     name rthumb
     direction -0.707107 -6.35121e-011 0.707107   
     length 0.847624   
     axis -90 -45 -2.82974e-014   XYZ
    dof rx rz
    limits (-45.0 45.0)
           (-45.0 45.0)
  end
:hierarchy
  begin
    root lhipjoint rhipjoint lowerback
    lhipjoint lfemur
    lfemur ltibia
    ltibia lfoot
    lfoot ltoes
    rhipjoint rfemur
    rfemur rtibia
    rtibia rfoot
    rfoot rtoes
    lowerback upperback
    upperback thorax
    thorax lowerneck lclavicle rclavicle
    lowerneck upperneck
    upperneck head
    lclavicle lhumerus
    lhumerus lradius
    lradius lwrist
    lwrist lhand lthumb
    lhand lfingers
    rclavicle rhumerus
    rhumerus rradius
    rradius rwrist
    rwrist rhand rthumb
    rhand rfingers
  end

#!OML:ASF G:\Work\Work\Patient Classification 1\Elijah\terrain1\Elijah.ASF
:FULLY-SPECIFIED
:DEGREES
247
root 15.4613 20.2602 12.2611 7.6661 -3.0338 3.10778
lowerback 8.08338 -0.105625 -5.29473
upperback 1.59511 -0.601188 -0.364178
thorax -2.82737 -0.257966 2.6611
lowerneck -11.4386 16.2489 13.6463
upperneck 33.4587 26.5933 -14.4411
head 18.7222 11.1353 -2.95793
rclavicle 1.02498e-014 -3.62782e-015
rhumerus -42.7893 -4.38726 -82.4983
rradius 53.8096
rwrist -19.3113
rhand -19.7287 19.677
rfingers 7.12502
rthumb 6.60173 -10.2001
lclavicle 1.02498e-014 -3.62782e-015
lhumerus -37.8049 7.05702 77.0524
lradius 58.7699
lwrist -1.04661
lhand -10.9263 24.5513
lfingers 7.12502
lthumb 15.0915 53.9811
rfemur -51.1809 -5.47624 21.2955
rtibia 49.9299
rfoot -14.4413 -2.54892
rtoes -16.664
lfemur 5.70764 -1.11452 -26.9257
ltibia -1.59028e-015
lfoot 1.30866 -7.8671
ltoes -14.7203
248
root 15.4327 20.2355 12.3391 7.68769 -3.05009 2.93244
lowerback 8.12184 -0.00628426 -5.01847
upperback 1.52465 -0.449627 -0.335444
thorax -2.93705 -0.180899 2.52083
lowerneck -11.6318 16.105 13.1448
upperneck 33.6918 26.2798 -13.8761
head 18.5854 10.9944 -2.7238
rclavicle -5.44173e-015 -9.86469e-015
rhumerus -43.285 -4.65759 -82.3257
rradius 54.0648
rwrist -19.748
rhand -19.7982 19.0548
rfingers 7.12502
rthumb 6.53466 -10.8244
lclavicle -5.44173e-015 -9.86469e-015
lhumerus -37.8566 6.85073 77.1884
lradius 58.4251
lwrist -1.09673
lhand -10.8447 25.2822
lfingers 7.12502
lthumb 15.1701 54.7061
rfemur -50.9566 -4.97033 21.3729
rtibia 49.627
rfoot -13.4661 -2.81618
rtoes -18.5916
lfemur 6.03353 -0.955651 -26.6697
ltibia 1.59028e-014
lfoot 0.88721 -8.21931
ltoes -16.6405
249
root 15.4035 20.2176 12.4197 7.74831 -2.92866 3.19534
lowerback 8.02216 -0.00326834 -5.21619
upperback 1.48038 -0.460425 -0.417418
thorax -2.92562 -0.184229 2.54731
lowerneck -11.4343 16.1346 13.537
upperneck 33.7357 26.3583 -14.0856
head 18.7142 11.0603 -2.86199
rclavicle -3.22404e-015 -9.64106e-015
rhumerus -43.4446 -4.73976 -82.2772
rradius 54.0373
rwrist -20.2064
rhand -19.668 18.5017
rfingers 7.12502
rthumb 6.66032 -11.3736
lclavicle -3.22404e-015 -9.64106e-015
lhumerus -37.8486 6.91979 77.2119
lradius 57.8803
lwrist -1.36767
lhand -10.6043 25.3244
lfingers 7.12502
lthumb 15.4017 54.7307
rfemur -50.965 -4.79589 21.0647
rtibia 49.8287
rfoot -12.6404 -3.1473
rtoes -17.6318
lfemur 6.26685 -0.997586 -26.8634
ltibia 1.43125e-014
lfoot 0.990175 -8.00587
ltoes -19.3606
250
root 15.3801 20.2191 12.4953 7.93982 -2.82679 3.44481
lowerback 7.79714 -0.041118 -5.44605
upperback 1.4136 -0.517931 -0.426563
thorax -2.8627 -0.211124 2.67114
lowerneck -10.9231 16.2343 14.1901
upperneck 33.7008 26.6588 -14.6495
head 18.9221 11.2336 -3.15383
rclavicle 1.2539e-014 1.79434e-014
rhumerus -43.4295 -4.52484 -82.2403
rradius 53.7491
rwrist -20.6894
rhand -19.6714 18.5366
rfingers 7.12502
rthumb 6.65702 -11.3388
lclavicle 1.2539e-014 1.79434e-014
lhumerus -37.9727 7.21675 77.3023
lradius 57.4841
lwrist -1.51328
lhand -10.8288 24.121
lfingers 7.12502
lthumb 15.1854 53.5438
rfemur -51.1776 -4.77439 20.8278
rtibia 50.4566
rfoot -12.6126 -3.3285
rtoes -13.9172
lfemur 6.2932 -1.03393 -27.0418
ltibia -7.95139e-015
lfoot 1.43504 -8.11371
ltoes -16.8219
251
root 15.3601 20.2261 12.5681 8.10039 -2.74304 3.54248
lowerback 7.76058 -0.0398722 -5.48131
upperback 1.2542 -0.519614 -0.344479
thorax -3.00672 -0.204385 2.7768
lowerneck -10.8303 16.2159 13.8072
upperneck 33.6898 26.6635 -14.4969
head 18.7717 11.2191 -3.04297
rclavicle -8.1626e-015 -1.6201e-014
rhumerus -43.6181 -4.47945 -82.0134
rradius 53.4315
rwrist -20.9901
rhand -19.7888 18.4753
rfingers 7.12502
rthumb 6.54369 -11.4036
lclavicle -8.1626e-015 -1.6201e-014
lhumerus -38.2568 7.39371 77.5375
lradius 57.2124
lwrist -1.53607
lhand -11.4342 20.8801
lfingers 7.12502
lthumb 14.6022 50.346
rfemur -51.3119 -4.72424 20.7167
rtibia 51.2975
rfoot -13.2204 -3.38011
rtoes -10.8964
lfemur 6.32999 -1.02749 -27.0805
ltibia 2.54444e-014
lfoot 1.65604 -8.19294
ltoes -16.9234
252
root 15.3357 20.2199 12.6476 8.16144 -2.64272 3.79497
lowerback 7.69474 -0.0622959 -5.6287
upperback 1.2591 -0.557773 -0.369278
thorax -2.96027 -0.223291 2.83701
lowerneck -10.8597 16.2364 13.7177
upperneck 33.6067 26.7318 -14.5767
head 18.749 11.23 -3.0418
rclavicle -7.03201e-015 1.54058e-015
rhumerus -43.4432 -4.66273 -81.9182
rradius 52.9154
rwrist -21.1727
rhand -19.8434 18.4012
rfingers 7.12502
rthumb 6.49099 -11.4794
lclavicle -7.03201e-015 1.54058e-015
lhumerus -38.2263 7.64165 77.6247
lradius 56.6968
lwrist -1.83853
lhand -11.1074 22.8669
lfingers 7.12502
lthumb 14.917 52.3098
rfemur -51.373 -4.60629 20.3941
rtibia 52.1772
rfoot -13.9163 -3.53193
rtoes -9.84287
lfemur 6.49595 -1.04859 -27.2607
ltibia -4.13472e-014
lfoot 1.83196 -8.27655
ltoes -17.5877
